<svg xmlns="http://www.w3.org/2000/svg" width="44.246" height="43.42" viewBox="0 0 44.246 43.42">
  <g id="Grupo_11" data-name="Grupo 11" transform="translate(-352 -33)">
    <path id="Caminho_25" data-name="Caminho 25" d="M170.989,25.27a2.659,2.659,0,1,0,2.659,2.659A2.659,2.659,0,0,0,170.989,25.27Z" transform="translate(217.497 12.81)"/>
    <path id="Caminho_26" data-name="Caminho 26" d="M43-.009,32.068.652,0,43.409H11.052a1.174,1.174,0,0,0,.934-.468l1.76-2.357H26.863A17.384,17.384,0,0,0,44.246,23.2V1.161A1.17,1.17,0,0,0,43-.009ZM40.653,8.28a4.72,4.72,0,0,1-8.334,0,1.176,1.176,0,0,1,0-1.107,4.722,4.722,0,0,1,8.334,0,1.186,1.186,0,0,1,0,1.107Z" transform="translate(352 33.011)"/>
  </g>
</svg>
