<svg xmlns="http://www.w3.org/2000/svg" viewBox="0 0 149.11 80.93"><g id="Camada_2" data-name="Camada 2"><g id="logotipo"><path d="M63.15,14.57a4.6,4.6,0,1,0,4.6,4.6A4.6,4.6,0,0,0,63.15,14.57Z"/><path d="M74.44,5.78,55.51,6.92,0,80.93H19.12a2,2,0,0,0,1.62-.81L23.8,76H46.5A30.09,30.09,0,0,0,76.59,46V7.8A2,2,0,0,0,74.44,5.78ZM70.36,20.13a8.17,8.17,0,0,1-14.42,0,2,2,0,0,1,0-1.92,8.17,8.17,0,0,1,14.42,0A2,2,0,0,1,70.36,20.13Z"/><polygon points="106.9 32.12 117.45 32.12 117.45 73.4 112.17 73.4 112.17 34.76 106.9 34.76 106.9 76.03 122.73 76.03 122.73 32.12 122.73 32.12 122.73 29.48 112.18 29.48 112.18 8.41 117.45 8.41 117.45 23.34 122.73 23.34 122.73 5.77 106.9 5.77 106.9 32.12"/><polygon points="96.34 73.4 91.07 73.4 91.07 32.12 96.34 32.12 96.34 29.48 91.07 29.48 91.07 8.41 96.34 8.41 96.34 23.34 101.62 23.34 101.62 5.77 85.79 5.77 85.79 76.03 101.62 76.03 101.62 34.76 96.34 34.76 96.34 73.4"/><polygon points="138.56 5.76 138.56 73.39 133.29 73.39 133.29 5.76 128.01 5.76 128.01 76.04 141.19 76.04 141.19 11.04 143.83 11.04 143.83 76.04 149.11 76.04 149.11 5.76 138.56 5.76"/><polygon points="146.47 1.48 128.01 0 128.01 1.65 146.47 3.13 146.47 1.48"/></g></g></svg>