<svg xmlns="http://www.w3.org/2000/svg" width="89.223" height="43.42" viewBox="0 0 89.223 43.42">
  <g id="Camada_2" data-name="Camada 2" transform="translate(0 0.011)">
    <g id="logotipo" transform="translate(0 -0.011)">
      <path id="Caminho_14" data-name="Caminho 14" d="M170.989,25.27a2.659,2.659,0,1,0,2.659,2.659A2.659,2.659,0,0,0,170.989,25.27Z" transform="translate(-134.503 -20.19)" fill="#fff"/>
      <path id="Caminho_15" data-name="Caminho 15" d="M43-.009,32.068.652,0,43.409H11.052a1.174,1.174,0,0,0,.934-.468l1.76-2.357H26.863A17.384,17.384,0,0,0,44.246,23.2V1.161A1.17,1.17,0,0,0,43-.009ZM40.653,8.28a4.72,4.72,0,0,1-8.334,0,1.176,1.176,0,0,1,0-1.107,4.722,4.722,0,0,1,8.334,0,1.186,1.186,0,0,1,0,1.107Z" transform="translate(0 0.011)" fill="#fff"/>
      <path id="Caminho_16" data-name="Caminho 16" d="M397.49,67.328l6.611-.918V68.5l-6.611.918Z" transform="translate(-317.613 -53.062)" fill="#fff"/>
      <path id="Caminho_17" data-name="Caminho 17" d="M263.564,79.453H251V60.25h12.288v3.4h-8.641V67.74h6.694v3.4h-6.694v4.911h8.916Z" transform="translate(-200.561 -48.14)" fill="#fff"/>
      <path id="Caminho_18" data-name="Caminho 18" d="M328.915,101.235h-4.059l-2.4-3.716-2.4,3.716H316l4.421-6.859L316,87.518h4.059l2.4,3.708,2.4-3.716h4.059l-4.421,6.859Z" transform="translate(-252.499 -69.922)" fill="#fff"/>
      <path id="Caminho_19" data-name="Caminho 19" d="M395.929,101.267h-3.175l-.054-.8a5.024,5.024,0,0,1-3.044,1.079q-5.818,0-5.816-6.611V87.55h3.4v7.417a5.04,5.04,0,0,0,.643,2.852,2.351,2.351,0,0,0,2.072.924,3.215,3.215,0,0,0,2.578-1.157V87.55h3.394Z" transform="translate(-306.706 -69.954)" fill="#fff"/>
    </g>
  </g>
</svg>
