<svg xmlns="http://www.w3.org/2000/svg" viewBox="0 0 444.04 216.06"><g id="Camada_2" data-name="Camada 2"><g id="logotipo"><path d="M181.56,25.27A13.23,13.23,0,1,0,194.79,38.5,13.23,13.23,0,0,0,181.56,25.27Z"/><path d="M214,0,159.58,3.29,0,216.06H55a5.84,5.84,0,0,0,4.65-2.33L68.41,202h65.27a86.51,86.51,0,0,0,86.5-86.51V5.82A5.82,5.82,0,0,0,214,0ZM202.3,41.25a23.49,23.49,0,0,1-41.47,0,5.85,5.85,0,0,1,0-5.51,23.5,23.5,0,0,1,41.47,0A5.9,5.9,0,0,1,202.3,41.25Z"/><polygon points="397.49 70.98 430.39 66.41 430.39 76.82 397.49 81.39 397.49 70.98"/><path d="M313.52,155.81H251V60.25h61.15V77.18h-43V97.52h33.31v16.92H269.15v24.44h44.37Z"/><path d="M380.27,155.81h-20.2l-11.94-18.49-11.95,18.49H316l22-34.13L316,87.55h20.2L348.12,106l11.95-18.49h20.2l-22,34.13Z"/><path d="M444,155.81H428.2l-.27-4a25,25,0,0,1-15.15,5.37q-28.95,0-28.94-32.9V87.55h16.93v36.91q0,9.6,3.2,14.19t10.31,4.6a16,16,0,0,0,12.83-5.76V87.55H444Z"/></g></g></svg>