<svg xmlns="http://www.w3.org/2000/svg" width="32" height="36" viewBox="0 0 32 36">
  <g id="seta_left" transform="translate(0 36) rotate(-90)" fill="#686868" opacity="0.3">
    <path d="M 30.87046241760254 31.50000381469727 L 5.129541873931885 31.50000381469727 C 4.231581687927246 31.50000381469727 3.424851894378662 31.0372428894043 2.971521854400635 30.26211357116699 C 2.518191814422607 29.48699378967285 2.510371923446655 28.55698394775391 2.95061182975769 27.77434349060059 L 15.8210620880127 4.893533706665039 C 16.26991271972656 4.095583915710449 17.0844612121582 3.61919379234314 18.00000190734863 3.61919379234314 C 18.91553115844727 3.61919379234314 19.7300910949707 4.095583915710449 20.17894172668457 4.893533706665039 L 33.04939270019531 27.77434349060059 C 33.48963165283203 28.55698394775391 33.4818115234375 29.48698425292969 33.02848052978516 30.26211357116699 C 32.57515335083008 31.0372428894043 31.76841163635254 31.50000381469727 30.87046241760254 31.50000381469727 Z" stroke="none"/>
    <path d="M 18.00000190734863 4.119184494018555 C 17.2675724029541 4.119184494018555 16.61592102050781 4.500293731689453 16.25685119628906 5.138664245605469 L 3.386390686035156 28.01947402954102 C 3.034202575683594 28.64558410644531 3.040462493896484 29.38959312438965 3.403121948242188 30.00969314575195 C 3.765792846679688 30.62979316711426 4.411182403564453 31.00000381469727 5.129541397094727 31.00000381469727 L 30.87045288085938 31.00000381469727 C 31.58882141113281 31.00000381469727 32.23421096801758 30.62979316711426 32.59687042236328 30.00968360900879 C 32.95954132080078 29.38958358764648 32.96579360961914 28.64558410644531 32.61360168457031 28.01947402954102 L 19.74316215515137 5.138664245605469 C 19.38407135009766 4.500303268432617 18.73243141174316 4.119184494018555 18.00000190734863 4.119184494018555 M 17.99999809265137 3.119184494018555 C 19.02063369750977 3.119184494018555 20.0412712097168 3.628923416137695 20.61473083496094 4.648403167724609 L 33.48518371582031 27.52921295166016 C 34.61008071899414 29.52902412414551 33.16493225097656 32.00000381469727 30.87045288085938 32.00000381469727 L 5.129541397094727 32.00000381469727 C 2.835060119628906 32.00000381469727 1.389923095703125 29.52902412414551 2.514812469482422 27.52921295166016 L 15.3852710723877 4.648403167724609 C 15.95872688293457 3.628923416137695 16.97936248779297 3.119184494018555 17.99999809265137 3.119184494018555 Z" stroke="none" fill="#707070"/>
  </g>
</svg>
